<svg width="496" height="496" viewBox="0 0 496 496" xmlns="http://www.w3.org/2000/svg">
  <g clip-path="url(#clip0_81_1902)">
    <path
      d="M337.439 63.2763C335.193 92.7921 330.559 122.165 322.915 150.87C315.319 179.528 304.713 207.518 290.715 233.743C283.692 246.856 275.857 259.54 267.114 271.556C258.371 283.572 248.768 294.969 238.401 305.554C234.961 309.083 231.378 312.516 227.795 315.854C228.942 316.14 230.088 316.378 231.282 316.617L242.987 318.953C250.775 320.431 258.562 322.196 266.445 323.34C286.654 326.916 307.006 329.587 327.501 331.637C329.986 330.016 332.47 328.347 334.906 326.63C347.71 317.618 360.227 308.129 371.645 297.448C383.064 286.862 393.67 275.609 402.986 263.259C412.159 250.862 420.185 237.606 426.634 223.492C444.598 184.296 449.471 139.188 443.26 95.0332C416.22 60.6537 380.245 33.6174 338.872 17.3574C338.872 17.8819 338.872 18.3588 338.872 18.8833C339.015 33.7604 338.537 48.5422 337.439 63.324V63.2763Z" />
    <path
      d="M104.105 374.407C107.354 373.072 110.65 371.832 113.899 370.402L123.502 366.015C136.162 359.911 148.584 353.379 160.336 345.75C167.837 340.886 175.146 335.736 182.217 330.3L167.025 326.915L161.053 325.58L155.129 324.006L143.28 320.859C135.35 318.761 127.419 316.758 119.632 314.183L96.1266 306.84L72.9557 298.496C69.0859 297.065 65.2162 295.73 61.3942 294.252L50.0237 289.531C42.4275 286.336 34.7835 283.285 27.2828 279.947L4.92414 269.361L0.242188 267.12C3.77754 313.802 20.3077 356.86 46.154 392.717C59.0532 389.618 71.8091 386.042 84.3739 381.846C91.0147 379.414 97.7509 377.22 104.248 374.455L104.105 374.407Z" />
    <path
      d="M10.6592 232.598C12.3314 233.647 14.0513 234.601 15.7712 235.507L20.9309 238.32L41.6652 249.573C48.6404 253.197 55.8066 256.44 62.8773 259.873L73.5311 264.975C77.1143 266.596 80.7929 268.075 84.3761 269.648L106.161 278.851L128.377 287.1C135.734 290.009 143.283 292.298 150.831 294.777L162.106 298.449L167.743 300.261L173.476 301.882L196.408 308.271C199.275 309.034 202.189 309.702 205.056 310.369C211.314 304.314 217.382 298.02 223.067 291.439C232.096 280.997 240.361 269.934 247.767 258.347C255.172 246.76 261.717 234.601 267.45 222.108C278.916 197.122 287.133 170.658 292.579 143.669C298.074 116.681 300.701 89.0721 301.131 61.5112C301.322 47.7308 300.94 33.9027 299.985 20.2176C299.65 15.2109 299.172 10.2042 298.647 5.24514C282.212 1.81196 265.157 0 247.671 0C117.914 0.0953662 11.3281 99.5624 0.339844 226.352C0.435394 226.399 0.530944 226.447 0.626494 226.543L10.707 232.646L10.6592 232.598Z" />
    <path
      d="M239.211 340.553L227.076 338.789C223.015 338.216 219.05 337.358 215.037 336.691C211.788 336.071 208.491 335.498 205.243 334.926C193.442 343.795 181.068 351.854 168.265 359.006C155.509 366.254 142.132 372.31 128.659 377.793L118.435 381.703C115.043 382.991 111.556 384.04 108.116 385.232C101.284 387.664 94.2135 389.476 87.2862 391.574C75.3902 394.769 63.3987 397.439 51.3594 399.632C53.5092 402.446 55.7547 405.164 58.0479 407.881C60.8666 407.738 63.6853 407.595 66.4563 407.452C74.3869 406.928 82.2698 406.356 90.2005 405.688C94.1658 405.402 98.0833 404.973 102.049 404.544C106.014 404.162 109.932 403.828 113.849 403.304C176.769 396.294 238.924 379.796 294.63 350.709C296.78 349.613 298.882 348.421 300.984 347.276C288.467 346.37 275.95 345.178 263.48 343.652C255.359 342.889 247.332 341.554 239.211 340.457V340.553Z" />
    <path
      d="M360.851 349.851C360.23 349.851 359.609 349.851 358.988 349.851C357.507 351.043 356.026 352.235 354.545 353.38C340.977 363.918 326.692 373.359 311.882 381.942C304.524 386.329 296.928 390.191 289.332 394.196C281.64 397.868 273.996 401.73 266.113 405.02C258.326 408.549 250.347 411.505 242.417 414.605C234.39 417.466 226.364 420.374 218.243 422.902C202.047 428.051 185.564 432.486 168.939 436.014C152.313 439.543 135.592 442.69 118.775 444.597C112.182 445.408 105.589 446.028 98.9961 446.6C140.465 477.642 191.966 496 247.815 496C350.77 496 439.059 433.487 476.753 344.463C470.542 345.13 464.332 345.75 458.073 346.275C425.825 349.04 393.386 350.28 360.899 349.946L360.851 349.851Z" />
    <path
      d="M460.84 182.341C458.738 199.316 454.677 216.196 448.753 232.409C442.829 248.668 435.042 264.309 425.582 278.852C416.075 293.348 404.991 306.842 393 319.192C387.697 324.771 382.107 330.064 376.422 335.166C403.367 336.501 430.455 336.739 457.496 335.833C465.188 335.595 472.88 335.213 480.571 334.784C490.7 307.748 496.242 278.518 496.242 247.953C496.242 200.652 482.96 156.497 459.98 118.875C460.601 123.023 461.079 127.172 461.414 131.368C462.99 148.2 462.942 165.318 460.936 182.294L460.84 182.341Z" />
  </g>
</svg>